<svg width="12" height="12" viewBox="0 0 12 12" fill="none" xmlns="http://www.w3.org/2000/svg">
<path fill-rule="evenodd" clip-rule="evenodd" d="M0.793405 11.2065C1.02772 11.4408 1.40762 11.4408 1.64193 11.2065L11.2072 1.64127C11.4415 1.40696 11.4415 1.02706 11.2071 0.792746C10.9728 0.558431 10.5929 0.558431 10.3586 0.792745L0.793405 10.358C0.55909 10.5923 0.55909 10.9722 0.793405 11.2065Z" fill="#E34850"/>
<path fill-rule="evenodd" clip-rule="evenodd" d="M11.2071 11.2065C10.9728 11.4408 10.5929 11.4408 10.3586 11.2065L0.793338 1.64127C0.559024 1.40696 0.559024 1.02706 0.793339 0.792746C1.02765 0.558431 1.40755 0.558431 1.64187 0.792745L11.2071 10.358C11.4414 10.5923 11.4414 10.9722 11.2071 11.2065Z" fill="#E34850"/>
</svg>
