<svg width="14" height="14" viewBox="0 0 14 14" fill="none" xmlns="http://www.w3.org/2000/svg">
<path fill-rule="evenodd" clip-rule="evenodd" d="M7 0C3.13401 0 0 3.13401 0 7C0 10.866 3.13401 14 7 14C10.866 14 14 10.866 14 7C14 3.13401 10.866 0 7 0ZM10.1351 5.48468C10.3258 5.29396 10.3258 4.98474 10.1351 4.79402C9.9444 4.6033 9.63518 4.6033 9.44446 4.79402L6.06886 8.16962L4.55372 6.65449C4.363 6.46377 4.05378 6.46377 3.86306 6.65449C3.67234 6.84521 3.67234 7.15443 3.86306 7.34515L5.66597 9.14806C5.88848 9.37057 6.24924 9.37057 6.47175 9.14806L10.1351 5.48468Z" fill="#36B37E"/>
</svg>
